<svg xmlns="http://www.w3.org/2000/svg" width="1280" height="640" viewBox="0 0 1280 640" role="img" aria-labelledby="title desc">
  <title id="title">ResiliReplay</title>
  <desc id="desc">Chaos testing for AI agents and MCP servers. Record, Inject, Replay, Regression.</desc>
  <defs>
    <linearGradient id="bg" x1="0" y1="0" x2="1" y2="1">
      <stop offset="0" stop-color="#07111f"/>
      <stop offset="1" stop-color="#102542"/>
    </linearGradient>
    <linearGradient id="accent" x1="0" y1="0" x2="1" y2="0">
      <stop offset="0" stop-color="#65d89a"/>
      <stop offset="1" stop-color="#79c0ff"/>
    </linearGradient>
  </defs>
  <rect width="1280" height="640" fill="url(#bg)"/>
  <circle cx="1140" cy="90" r="240" fill="#17385d" opacity=".45"/>
  <circle cx="80" cy="610" r="220" fill="#153a35" opacity=".45"/>
  <rect x="72" y="70" width="12" height="116" rx="6" fill="url(#accent)"/>
  <text x="116" y="170" fill="#f0f6fc" font-family="Inter,Segoe UI,Arial,sans-serif" font-size="84" font-weight="750">ResiliReplay</text>
  <text x="82" y="254" fill="#b8c7d9" font-family="Inter,Segoe UI,Arial,sans-serif" font-size="38">Chaos testing for AI agents and MCP servers</text>
  <g transform="translate(82 338)" font-family="Inter,Segoe UI,Arial,sans-serif">
    <rect width="1116" height="142" rx="28" fill="#0d1726" stroke="#2c4462" stroke-width="2"/>
    <g fill="#e6edf3" font-size="30" font-weight="650" text-anchor="middle">
      <text x="134" y="86">Record</text>
      <text x="414" y="86">Inject</text>
      <text x="694" y="86">Replay</text>
      <text x="974" y="86">Regression</text>
    </g>
    <g fill="#79c0ff" font-size="42" text-anchor="middle">
      <text x="274" y="88">→</text>
      <text x="554" y="88">→</text>
      <text x="834" y="88">→</text>
    </g>
    <g fill="none" stroke-width="5">
      <circle cx="134" cy="38" r="10" stroke="#65d89a"/>
      <path d="M404 32l20 12-20 12z" stroke="#ffb86b"/>
      <path d="M682 39a12 12 0 1 1 6 11" stroke="#79c0ff"/>
      <path d="M965 31h18v18h-18z" stroke="#d2a8ff"/>
    </g>
  </g>
  <text x="82" y="565" fill="#8b9bb4" font-family="ui-monospace,SFMono-Regular,Consolas,monospace" font-size="24">deterministic · model-agnostic · local-first</text>
</svg>
